# xmcd CD database file
#
# Track frame offsets:
#	150
#	8695
#	16549
#	40166
#	84801
#	113240
#	133095
#	157824
#
# Disc length: 2345 seconds
#
# Revision: 5
# Processed by: cddbd v1.4PL0 Copyright (c) Steve Scherf et al.
# Submitted via: CDex 1.51
#
DISCID=48092708
DTITLE=B.B. King - Live In Cook County Jail
DYEAR=1971
DGENRE=Blues
TTITLE0=Introduction
TTITLE1=Every Day I Have The Blues
TTITLE2=How Blue Can You Get
TTITLE3=Worry, Worry
TTITLE4=3 O'Clock Blues - Darlin' You Know I Love You
TTITLE5=Sweet Sixteen
TTITLE6=The Trill Is Gone
TTITLE7=Please Accept My Love
EXTD=Recorded in Performance At Cook County Jail,\nChicago, Illinois, September 10th, 1970\n\n(p) 1972 by MCA Records\nMCA MCD 31080\n\nPerformers:\nB.B. King (g, voc]\nJohn Browning (tp]\nLouis Hubert (ts]\nBooker Walker (as]\nRon Levy (p]\nWilbert Free
EXTD=man (b]\nSonny Freeman (dr]\n\nProduced by Bill Szymozyk YEAR: 1971
EXTT0=
EXTT1=
EXTT2=
EXTT3=
EXTT4=
EXTT5=
EXTT6=
EXTT7=
PLAYORDER=
